Ground reaction force (.MOT) by Lee-Son Toolkit
nRows=72
nColumns=19

name S4_T_02_fixed_grf.mot
datacolumns 19
datarows 72
range 5 5.071
endheader
time	1_ground_force_vx	1_ground_force_vy	1_ground_force_vz	1_ground_force_px	1_ground_force_py	1_ground_force_pz	2_ground_force_vx	2_ground_force_vy	2_ground_force_vz	2_ground_force_px	2_ground_force_py	2_ground_force_pz	1_ground_torque_x	1_ground_torque_y	1_ground_torque_z	2_ground_torque_x	2_ground_torque_y	2_ground_torque_z
5	0	0	0	0	0	0	2.23746	-33.2427	7.64567	0.0916288	0	0.0955892	0	0	0	0	-1.13882	0
5.001	0	0	0	0	0	0	2.28141	-33.2461	7.42126	0.090979	0	0.0929045	0	0	0	0	-1.18031	0
5.002	0	0	0	0	0	0	2.32603	-32.725	7.55308	0.0911745	0	0.0953856	0	0	0	0	-1.17663	0
5.003	0	0	0	0	0	0	2.32728	-32.7262	7.50922	0.09294	0	0.094262	0	0	0	0	-1.16533	0
5.004	0	0	0	0	0	0	2.41481	-33.4167	7.7346	0.0909554	0	0.0938199	0	0	0	0	-1.11326	0
5.005	0	0	0	0	0	0	2.54671	-33.0713	7.73032	0.0888052	0	0.0941652	0	0	0	0	-1.16113	0
5.006	0	0	0	0	0	0	2.50456	-33.2449	7.77314	0.0912846	0	0.0924669	0	0	0	0	-1.17518	0
5.007	0	0	0	0	0	0	2.46006	-32.8994	7.64026	0.0917005	0	0.093593	0	0	0	0	-1.18253	0
5.008	0	0	0	0	0	0	2.3242	-33.59	7.55508	0.0883053	0	0.090619	0	0	0	0	-1.13356	0
5.009	0	0	0	0	0	0	2.5901	-33.5967	7.41808	0.0879239	0	0.0936695	0	0	0	0	-1.26902	0
5.01	0	0	0	0	0	0	2.54753	-33.4213	7.55298	0.0901808	0	0.0928433	0	0	0	0	-1.19906	0
5.011	0	0	0	0	0	0	2.45974	-33.2494	7.42264	0.0924861	0	0.0952718	0	0	0	0	-1.20017	0
5.012	0	0	0	0	0	0	2.23856	-32.7257	7.47034	0.0942406	0	0.0979286	0	0	0	0	-1.13168	0
5.013	0	0	0	0	0	0	2.50239	-33.5937	7.55339	0.0892036	0	0.0929468	0	0	0	0	-1.20222	0
5.014	0	0	0	0	0	0	2.46137	-33.4178	7.77673	0.0931965	0	0.091438	0	0	0	0	-1.11821	0
5.015	0	0	0	0	0	0	2.3266	-33.4167	7.69178	0.09221	0	0.0956428	0	0	0	0	-1.12105	0
5.016	0	0	0	0	0	0	2.41288	-33.5884	7.81878	0.087602	0	0.0943576	0	0	0	0	-1.18589	0
5.017	0	0	0	0	0	0	2.37219	-32.9009	7.46817	0.0941669	0	0.0944426	0	0	0	0	-1.13794	0
5.018	0	0	0	0	0	0	2.45894	-33.5947	7.46697	0.0909811	0	0.0930753	0	0	0	0	-1.18413	0
5.019	0	0	0	0	0	0	2.3696	-33.5911	7.63787	0.0887769	0	0.0916591	0	0	0	0	-1.23633	0
5.02	0	0	0	0	0	0	2.3724	-32.2061	7.6017	0.0949741	0	0.0999262	0	0	0	0	-1.13168	0
5.021	0	0	0	0	0	0	2.45942	-33.4166	7.82133	0.0908853	0	0.0948749	0	0	0	0	-1.14831	0
5.022	0	0	0	0	0	0	2.3251	-33.5907	7.59783	0.0894242	0	0.0928958	0	0	0	0	-1.18892	0
5.023	0	0	0	0	0	0	2.50525	-32.3827	7.46728	0.0942996	0	0.0965369	0	0	0	0	-1.14575	0
5.024	0	0	0	0	0	0	2.37092	-33.0748	7.42253	0.0924954	0	0.0957634	0	0	0	0	-1.19272	0
5.025	0	0	0	0	0	0	2.50556	-33.2491	7.50937	0.0935938	0	0.0922283	0	0	0	0	-1.18149	0
5.026	0	0	0	0	0	0	2.41461	-32.7258	7.59804	0.0910602	0	0.0971232	0	0	0	0	-1.18579	0
5.027	0	0	0	0	0	0	2.45986	-32.9044	7.29153	0.0934555	0	0.0964377	0	0	0	0	-1.18118	0
5.028	0	0	0	0	0	0	2.23872	-33.0702	7.60423	0.093866	0	0.095574	0	0	0	0	-1.09036	0
5.029	0	0	0	0	0	0	2.41389	-32.899	7.59448	0.0893997	0	0.0954054	0	0	0	0	-1.23022	0
5.03	0	0	0	0	0	0	2.63692	-32.7275	7.68147	0.0901867	0	0.0928092	0	0	0	0	-1.20497	0
5.031	0	0	0	0	0	0	2.50264	-32.5536	7.55111	0.089652	0	0.0952663	0	0	0	0	-1.19585	0
5.032	0	0	0	0	0	0	2.50408	-33.4207	7.5974	0.0913829	0	0.0933843	0	0	0	0	-1.20121	0
5.033	0	0	0	0	0	0	2.32641	-33.0734	7.46556	0.0919674	0	0.0951099	0	0	0	0	-1.19591	0
5.034	0	0	0	0	0	0	2.41756	-32.5544	7.60009	0.0956679	0	0.0994772	0	0	0	0	-1.18366	0
5.035	0	0	0	0	0	0	2.23764	-33.59	7.59894	0.0912571	0	0.0923327	0	0	0	0	-1.16588	0
5.036	0	0	0	0	0	0	2.32736	-32.9018	7.37745	0.0936141	0	0.0951333	0	0	0	0	-1.1922	0
5.037	0	0	0	0	0	0	2.37013	-34.1123	7.56093	0.09143	0	0.0944589	0	0	0	0	-1.14014	0
5.038	0	0	0	0	0	0	2.417	-33.0726	7.64545	0.0942115	0	0.09433	0	0	0	0	-1.1251	0
5.039	0	0	0	0	0	0	2.54998	-32.7289	7.60004	0.0944201	0	0.0977538	0	0	0	0	-1.1753	0
5.04	0	0	0	0	0	0	2.32448	-33.5925	7.46988	0.0900031	0	0.0965672	0	0	0	0	-1.17692	0
5.041	0	0	0	0	0	0	2.28392	-32.8961	7.73156	0.0936971	0	0.0935098	0	0	0	0	-1.12455	0
5.042	0	0	0	0	0	0	2.59221	-33.4224	7.55289	0.0906923	0	0.0940162	0	0	0	0	-1.22011	0
5.043	0	0	0	0	0	0	2.32217	-32.9016	7.19647	0.0865804	0	0.0952814	0	0	0	0	-1.25822	0
5.044	0	0	0	0	0	0	2.50436	-32.7274	7.55067	0.0915405	0	0.0917978	0	0	0	0	-1.17404	0
5.045	0	0	0	0	0	0	2.32664	-32.5536	7.42287	0.0928451	0	0.0960739	0	0	0	0	-1.151	0
5.046	0	0	0	0	0	0	2.2386	-32.5535	7.42298	0.0941215	0	0.0984852	0	0	0	0	-1.18277	0
5.047	0	0	0	0	0	0	2.37168	-33.2447	7.68789	0.0926083	0	0.0949479	0	0	0	0	-1.16591	0
5.048	0	0	0	0	0	0	2.45717	-33.5923	7.55407	0.0881247	0	0.0923589	0	0	0	0	-1.1778	0
5.049	0	0	0	0	0	0	2.59146	-33.5959	7.50544	0.0890755	0	0.0912416	0	0	0	0	-1.24733	0
5.05	0	0	0	0	0	0	2.5064	-32.3829	7.5069	0.0948726	0	0.0940559	0	0	0	0	-1.18578	0
5.051	0	0	0	0	0	0	2.32592	-32.8974	7.59763	0.0907111	0	0.0936456	0	0	0	0	-1.15446	0
5.052	0	0	0	0	0	0	2.50271	-33.2483	7.46534	0.0901222	0	0.0940182	0	0	0	0	-1.19692	0
5.053	0	0	0	0	0	0	2.23792	-32.7272	7.33714	0.0936475	0	0.0974898	0	0	0	0	-1.14736	0
5.054	0	0	0	0	0	0	2.45815	-33.596	7.37849	0.0903953	0	0.0949222	0	0	0	0	-1.21824	0
5.055	0	0	0	0	0	0	2.58976	-33.5962	7.42119	0.0879437	0	0.0942621	0	0	0	0	-1.22536	0
5.056	0	0	0	0	0	0	2.37108	-33.7652	7.60083	0.0917816	0	0.0918768	0	0	0	0	-1.14638	0
5.057	0	0	0	0	0	0	2.50473	-32.5526	7.68417	0.092025	0	0.0939204	0	0	0	0	-1.16333	0
5.058	0	0	0	0	0	0	2.41395	-33.768	7.4239	0.0905691	0	0.0943946	0	0	0	0	-1.19857	0
5.059	0	0	0	0	0	0	2.45837	-32.8973	7.73207	0.0899607	0	0.097045	0	0	0	0	-1.15934	0
5.06	0	0	0	0	0	0	2.90453	-33.4281	7.46388	0.0926212	0	0.0900458	0	0	0	0	-1.19707	0
5.061	0	0	0	0	0	0	2.45792	-33.2466	7.51094	0.0896128	0	0.0939649	0	0	0	0	-1.16548	0
5.062	0	0	0	0	0	0	2.63507	-33.2459	7.72724	0.0876447	0	0.0924861	0	0	0	0	-1.20118	0
5.063	0	0	0	0	0	0	2.46103	-32.2069	7.5998	0.0942652	0	0.0974869	0	0	0	0	-1.13158	0
5.064	0	0	0	0	0	0	2.36965	-32.8984	7.5101	0.0900826	0	0.0925656	0	0	0	0	-1.13298	0
5.065	0	0	0	0	0	0	2.28122	-33.0718	7.46959	0.0914699	0	0.0957111	0	0	0	0	-1.13362	0
5.066	0	0	0	0	0	0	2.32899	-33.2475	7.51243	0.0955524	0	0.0946053	0	0	0	0	-1.16442	0
5.067	0	0	0	0	0	0	2.68358	-33.0774	7.59612	0.09385	0	0.0925911	0	0	0	0	-1.19796	0
5.068	0	0	0	0	0	0	2.45941	-32.208	7.46992	0.0930748	0	0.100082	0	0	0	0	-1.13131	0
5.069	0	0	0	0	0	0	2.50432	-32.9016	7.51285	0.0928336	0	0.0955663	0	0	0	0	-1.14088	0
5.07	0	0	0	0	0	0	2.27854	-33.7628	7.5573	0.0873318	0	0.0947902	0	0	0	0	-1.16286	0
5.071	0	0	0	0	0	0	2.19293	-33.4148	7.64319	0.0906417	0	0.0915761	0	0	0	0	-1.13412	0
